<svg xmlns="http://www.w3.org/2000/svg" viewBox="0 0 64 64" width="64" height="64">
  <rect width="64" height="64" rx="12" fill="#292524"/>
  <!-- spine -->
  <rect x="28" y="8" width="8" height="4" rx="1" fill="#d97706"/>
  <rect x="28" y="14" width="8" height="4" rx="1" fill="#d97706"/>
  <rect x="28" y="20" width="8" height="4" rx="1" fill="#d97706"/>
  <rect x="28" y="26" width="8" height="4" rx="1" fill="#d97706"/>
  <rect x="28" y="32" width="8" height="4" rx="1" fill="#d97706"/>
  <rect x="28" y="38" width="8" height="4" rx="1" fill="#d97706"/>
  <rect x="28" y="44" width="8" height="4" rx="1" fill="#d97706"/>
  <rect x="28" y="50" width="8" height="4" rx="1" fill="#d97706"/>
  <!-- side supports -->
  <line x1="28" y1="12" x2="18" y2="24" stroke="#78716c" stroke-width="2.5" stroke-linecap="round"/>
  <line x1="36" y1="12" x2="46" y2="24" stroke="#78716c" stroke-width="2.5" stroke-linecap="round"/>
  <line x1="28" y1="48" x2="18" y2="40" stroke="#78716c" stroke-width="2.5" stroke-linecap="round"/>
  <line x1="36" y1="48" x2="46" y2="40" stroke="#78716c" stroke-width="2.5" stroke-linecap="round"/>
  <!-- bungee lines -->
  <path d="M20 26 Q16 36 20 38" stroke="#ef4444" stroke-width="1" fill="none" stroke-dasharray="3,2"/>
  <path d="M44 26 Q48 36 44 38" stroke="#ef4444" stroke-width="1" fill="none" stroke-dasharray="3,2"/>
</svg>
